<?xml version="1.0" encoding="UTF-8"?>
<svg xmlns="http://www.w3.org/2000/svg" xmlns:xlink="http://www.w3.org/1999/xlink" width="309px" height="305px" viewBox="0 0 309 305" version="1.1">
<g id="surface1">
<path style=" stroke:none;fill-rule:nonzero;fill:rgb(93.333333%,24.313725%,21.960784%);fill-opacity:1;" d="M 159.539062 257.011719 C 158.183594 255.523438 156.824219 256.414062 156.828125 255.523438 C 148.691406 257.308594 133.4375 252.546875 126.996094 253.144531 C 128.351562 251.359375 124.960938 251.65625 124.960938 250.46875 C 123.605469 252.25 122.25 250.46875 120.214844 251.0625 C 118.179688 246.601562 110.042969 249.871094 109.027344 244.21875 C 104.28125 244.21875 102.585938 241.839844 97.839844 239.460938 C 98.179688 239.164062 98.519531 239.164062 98.859375 238.867188 C 96.484375 238.570312 96.484375 237.378906 94.449219 237.378906 L 95.128906 236.191406 C 91.398438 235.59375 90.042969 230.539062 84.621094 228.753906 C 82.925781 228.457031 79.195312 223.402344 77.164062 222.210938 C 76.144531 221.617188 74.449219 221.617188 76.820312 221.316406 C 76.484375 221.019531 76.484375 220.425781 76.820312 220.128906 C 74.449219 219.535156 74.109375 217.75 71.058594 216.855469 C 70.71875 215.964844 71.738281 215.371094 71.058594 214.773438 C 70.382812 214.476562 69.363281 215.074219 68.6875 214.773438 C 68.347656 220.128906 75.128906 220.722656 77.164062 225.183594 C 76.484375 224.589844 75.46875 222.804688 74.789062 223.996094 C 74.449219 224.886719 77.5 228.160156 77.5 226.375 C 76.484375 226.96875 76.144531 225.480469 76.820312 225.183594 C 77.839844 226.671875 79.875 226.375 79.875 227.566406 C 78.855469 228.457031 77.5 226.671875 77.839844 228.160156 C 80.890625 229.644531 80.550781 231.132812 82.246094 233.214844 C 80.890625 231.730469 80.550781 234.40625 79.195312 233.214844 C 78.855469 228.753906 73.09375 229.644531 73.09375 225.183594 C 72.417969 223.699219 71.738281 224.886719 70.71875 224.292969 C 72.078125 223.101562 66.652344 218.9375 66.652344 220.425781 C 64.957031 218.640625 65.972656 218.046875 65.636719 216.855469 C 64.28125 216.558594 65.296875 218.046875 64.28125 217.152344 C 65.636719 215.074219 62.585938 212.394531 60.550781 210.3125 L 61.90625 209.71875 C 59.535156 208.53125 59.195312 206.148438 57.5 203.472656 C 55.464844 206.148438 61.566406 212.097656 60.550781 213.289062 C 60.550781 213.585938 62.921875 215.964844 63.601562 217.152344 C 66.3125 221.316406 68.347656 226.375 72.078125 228.753906 C 71.398438 228.457031 71.738281 226.671875 72.753906 227.566406 C 72.753906 228.457031 72.078125 229.347656 72.078125 230.242188 C 74.109375 232.023438 75.804688 233.511719 77.839844 235.296875 C 73.433594 232.917969 69.027344 230.539062 65.972656 226.96875 C 67.667969 226.671875 69.363281 229.347656 70.71875 229.050781 C 67.332031 226.671875 68.347656 225.78125 66.992188 222.804688 C 65.636719 221.914062 67.332031 223.996094 65.972656 224.292969 C 61.566406 220.722656 58.175781 218.640625 56.144531 215.371094 C 56.480469 215.074219 56.820312 214.773438 56.820312 214.179688 C 56.484375 213.882812 56.484375 213.882812 56.144531 213.585938 C 58.175781 215.371094 58.855469 216.859375 61.226562 217.152344 C 60.210938 216.261719 61.226562 215.964844 59.871094 215.074219 C 59.195312 213.882812 58.179688 215.667969 57.5 214.773438 C 58.179688 213.882812 57.5 212.695312 57.5 211.800781 C 56.820312 211.800781 56.144531 211.800781 55.804688 210.910156 C 55.125 210.609375 54.789062 210.910156 54.449219 211.503906 C 54.109375 211.207031 54.109375 210.609375 53.769531 210.3125 L 53.769531 210.015625 C 53.433594 209.71875 53.09375 209.125 52.753906 208.824219 C 50.042969 202.582031 48.347656 194.253906 44.617188 188.898438 C 45.632812 185.328125 43.941406 178.191406 42.921875 176.40625 C 43.941406 174.917969 43.261719 168.078125 42.585938 166.886719 C 40.890625 167.484375 42.921875 170.753906 41.226562 171.648438 C 39.535156 165.105469 42.246094 157.667969 41.566406 151.71875 C 42.246094 151.71875 42.921875 151.71875 42.921875 151.421875 C 41.90625 150.53125 43.601562 148.746094 43.261719 146.664062 C 44.617188 143.984375 40.210938 150.53125 40.210938 153.207031 C 39.871094 153.800781 38.515625 153.207031 38.855469 154.695312 C 38.855469 156.777344 39.53125 160.941406 38.175781 163.914062 C 37.5 163.914062 37.5 163.320312 36.820312 163.617188 C 36.480469 165.105469 36.144531 166.890625 35.804688 168.375 C 35.464844 167.78125 35.125 166.890625 35.125 166.589844 C 33.429688 159.15625 35.125 150.53125 34.449219 144.285156 C 35.804688 144.285156 35.804688 142.5 36.820312 141.90625 C 36.480469 144.285156 35.804688 147.257812 37.5 147.851562 C 38.855469 136.253906 41.566406 123.464844 47.667969 110.972656 C 52.074219 101.75 58.515625 92.53125 66.3125 85.09375 C 66.992188 85.988281 65.972656 88.070312 66.3125 88.960938 C 73.09375 82.714844 77.5 75.28125 84.957031 71.117188 C 85.296875 72.601562 81.90625 73.792969 81.90625 74.984375 C 84.957031 72.304688 85.976562 73.199219 89.367188 72.304688 C 90.382812 71.117188 88.011719 72.304688 87.671875 71.117188 C 89.703125 69.925781 91.058594 68.4375 92.417969 67.546875 C 92.417969 67.84375 92.078125 67.84375 92.078125 68.140625 C 95.804688 67.25 96.144531 65.464844 98.859375 64.871094 C 98.519531 64.574219 97.839844 64.273438 96.824219 64.574219 C 97.5 64.273438 98.519531 63.679688 99.535156 63.382812 C 99.195312 63.382812 99.195312 63.679688 98.859375 63.679688 C 100.890625 62.789062 99.195312 63.976562 99.195312 64.574219 C 99.535156 64.574219 99.875 64.273438 99.875 64.273438 C 97.839844 65.464844 96.484375 66.058594 95.804688 68.140625 C 96.824219 67.546875 97.164062 68.140625 98.519531 67.25 C 99.875 66.65625 98.179688 65.761719 99.195312 65.167969 C 100.214844 65.761719 101.570312 65.464844 102.585938 65.464844 C 102.585938 64.871094 102.925781 64.273438 103.605469 63.976562 C 103.941406 63.382812 103.605469 63.085938 103.265625 63.085938 C 103.601562 62.789062 103.941406 62.789062 104.621094 62.492188 C 104.621094 62.492188 104.960938 62.492188 104.960938 62.789062 C 110.722656 60.40625 117.164062 58.324219 123.265625 56.542969 C 126.996094 56.246094 131.738281 56.246094 133.773438 54.164062 C 133.097656 54.164062 132.417969 54.460938 132.078125 54.164062 C 132.417969 54.164062 133.097656 53.867188 133.433594 53.867188 C 134.113281 54.460938 135.128906 53.867188 134.113281 55.054688 C 134.453125 55.054688 134.453125 55.054688 134.792969 54.757812 C 134.792969 55.054688 134.792969 55.054688 135.128906 55.351562 C 135.46875 55.351562 135.808594 55.054688 136.148438 54.460938 C 136.484375 54.460938 136.824219 54.460938 137.164062 54.164062 L 136.824219 54.460938 C 139.539062 53.867188 141.910156 54.164062 145.640625 53.566406 C 145.640625 53.269531 145.640625 52.972656 145.640625 52.675781 C 146.316406 52.675781 146.65625 52.378906 147.335938 52.378906 L 147.335938 52.675781 C 148.691406 52.082031 150.046875 53.269531 150.046875 52.675781 C 150.382812 52.675781 150.382812 52.675781 150.722656 52.675781 C 150.722656 53.269531 150.386719 53.566406 150.386719 53.867188 C 152.082031 53.867188 153.097656 53.867188 153.773438 52.972656 C 153.4375 52.675781 153.097656 52.675781 152.757812 52.675781 C 153.4375 52.675781 154.113281 52.378906 154.792969 52.082031 C 155.808594 52.378906 156.148438 52.675781 156.148438 53.867188 C 157.84375 51.1875 163.265625 54.460938 165.640625 53.867188 C 166.65625 53.867188 166.316406 52.675781 166.996094 52.082031 C 167.335938 52.082031 167.675781 52.082031 168.011719 52.082031 C 169.707031 53.269531 172.082031 54.460938 175.132812 54.757812 C 172.417969 54.164062 175.46875 53.867188 175.808594 53.566406 C 175.132812 53.566406 175.132812 53.269531 175.132812 52.972656 C 176.148438 52.972656 177.164062 53.269531 178.183594 53.269531 C 178.183594 53.863281 178.523438 54.160156 179.199219 54.164062 C 179.878906 54.164062 179.878906 53.867188 179.878906 53.269531 C 180.894531 53.269531 181.570312 53.269531 182.589844 53.566406 C 182.25 54.757812 184.285156 55.054688 184.960938 55.945312 C 182.25 55.351562 179.199219 54.460938 178.183594 55.945312 C 189.03125 58.027344 200.894531 61.003906 212.421875 66.058594 C 212.421875 66.058594 212.421875 66.058594 212.421875 66.355469 L 212.761719 66.355469 C 214.792969 67.25 216.828125 68.140625 218.863281 69.035156 C 220.21875 69.628906 221.234375 70.222656 222.589844 71.117188 C 222.589844 71.414062 222.589844 71.710938 223.269531 71.710938 L 223.609375 71.710938 C 224.964844 72.601562 226.320312 73.199219 227.675781 74.089844 C 229.03125 75.875 230.386719 78.253906 232.761719 77.660156 C 237.847656 84.5 243.269531 87.175781 247.675781 94.316406 C 248.015625 93.125 249.03125 96.992188 250.726562 97.289062 C 248.015625 96.992188 252.421875 98.777344 249.710938 98.480469 C 252.085938 100.5625 252.761719 101.453125 253.101562 103.832031 C 252.421875 102.644531 252.085938 102.347656 251.746094 103.535156 C 251.40625 105.320312 254.117188 103.238281 255.136719 105.023438 C 253.101562 105.023438 253.78125 106.210938 254.117188 107.699219 C 255.132812 106.808594 254.796875 105.914062 255.8125 106.210938 C 257.167969 107.402344 255.136719 107.699219 255.472656 108.59375 C 256.492188 107.402344 256.832031 107.996094 258.1875 108.59375 C 256.492188 108.890625 259.203125 110.972656 257.167969 110.078125 C 258.523438 111.566406 258.863281 112.460938 258.1875 113.945312 C 256.832031 112.160156 257.847656 110.972656 255.8125 111.269531 C 259.882812 114.242188 257.847656 121.085938 262.59375 121.679688 C 259.542969 122.273438 262.59375 123.464844 260.898438 123.761719 C 262.933594 124.355469 261.914062 126.734375 264.289062 127.332031 C 263.949219 128.816406 263.269531 129.710938 262.933594 131.195312 C 263.949219 132.386719 264.289062 134.765625 265.984375 135.0625 C 264.964844 135.957031 265.644531 138.335938 264.628906 139.226562 C 265.984375 138.632812 266.660156 138.632812 267.679688 139.820312 C 265.984375 141.011719 267.339844 142.203125 266.324219 142.5 C 269.375 149.339844 265.644531 163.320312 267.339844 168.671875 C 265.304688 167.78125 265.984375 170.753906 264.628906 170.753906 C 267 171.648438 264.964844 173.136719 265.984375 174.621094 C 261.238281 177 265.984375 183.542969 259.542969 185.03125 C 260.21875 189.195312 257.507812 190.980469 255.472656 195.441406 C 255.136719 195.144531 255.136719 194.847656 254.796875 194.550781 C 254.457031 196.632812 253.101562 196.929688 253.777344 198.714844 L 252.421875 198.117188 C 252.421875 201.390625 246.660156 203.175781 245.304688 208.230469 C 244.964844 209.71875 239.878906 213.585938 238.523438 215.667969 C 237.847656 216.558594 238.183594 218.046875 237.507812 215.964844 C 237.167969 216.261719 236.492188 216.261719 236.152344 216.261719 C 235.8125 218.34375 233.777344 218.9375 233.101562 221.617188 C 232.421875 221.914062 231.40625 221.019531 230.726562 221.914062 C 230.726562 222.507812 231.40625 223.398438 231.066406 223.996094 C 237.167969 223.699219 237.167969 217.453125 241.914062 215.371094 C 241.574219 216.261719 239.542969 217.152344 240.898438 217.75 C 241.914062 217.75 244.964844 214.773438 243.269531 215.074219 C 244.285156 215.667969 242.253906 216.261719 241.914062 215.964844 C 243.609375 214.773438 242.929688 213.289062 244.289062 212.988281 C 245.304688 213.585938 243.269531 215.070312 245.304688 214.773438 C 246.660156 212.097656 248.355469 211.800781 250.390625 210.3125 C 249.035156 211.503906 252.085938 211.800781 250.726562 212.988281 C 245.644531 213.882812 247.339844 218.9375 242.253906 219.535156 C 240.898438 220.425781 241.914062 220.722656 241.574219 221.617188 C 239.878906 220.722656 236.152344 225.78125 237.507812 225.480469 C 235.8125 226.96875 234.792969 226.375 233.441406 226.671875 C 233.101562 227.859375 234.796875 226.96875 234.117188 227.863281 C 231.746094 226.96875 228.695312 229.945312 226.660156 232.027344 L 225.640625 231.132812 C 224.625 233.511719 221.914062 233.808594 218.863281 235.59375 C 222.253906 237.082031 228.015625 230.835938 229.710938 231.726562 C 230.050781 231.726562 232.761719 229.347656 233.777344 228.457031 C 238.1875 225.480469 243.609375 223.101562 245.644531 219.832031 C 245.304688 220.425781 243.269531 220.425781 244.289062 219.535156 C 245.304688 219.238281 246.320312 219.832031 247.339844 219.832031 C 252.761719 213.289062 259.542969 207.933594 264.628906 200.199219 C 264.964844 199.902344 265.304688 199.308594 265.644531 198.714844 C 264.964844 200.496094 263.949219 201.984375 263.269531 203.769531 C 257.847656 207.042969 255.8125 216.558594 249.371094 218.046875 C 249.710938 221.316406 246.320312 222.210938 244.625 226.078125 C 243.609375 227.265625 242.933594 225.183594 241.914062 226.671875 C 242.929688 230.835938 233.4375 230.539062 233.777344 234.40625 C 233.101562 234.703125 232.085938 235 231.40625 235.59375 L 231.066406 235.59375 C 230.726562 235.890625 230.726562 235.890625 230.386719 236.191406 C 228.695312 237.082031 227.335938 237.972656 225.980469 238.867188 C 221.234375 241.246094 214.792969 243.03125 209.710938 245.410156 L 209.710938 245.113281 C 208.355469 245.707031 206.660156 245.410156 206.996094 246.601562 C 205.980469 247.195312 204.964844 247.789062 203.945312 248.382812 C 203.609375 248.382812 203.609375 248.382812 203.269531 248.382812 C 203.269531 248.382812 202.929688 248.085938 202.589844 248.085938 C 201.914062 248.085938 201.914062 248.085938 201.574219 248.382812 C 197.167969 248.683594 191.402344 250.464844 189.707031 251.65625 C 188.015625 250.765625 180.214844 252.25 178.859375 252.847656 C 179.539062 253.738281 181.574219 252.847656 183.269531 252.847656 C 182.25 253.144531 181.234375 253.441406 180.894531 254.035156 C 180.554688 254.035156 180.554688 254.035156 180.214844 254.035156 C 179.878906 253.144531 178.859375 254.035156 178.523438 253.738281 L 178.859375 253.738281 C 178.523438 252.546875 177.503906 251.953125 175.808594 252.25 C 175.808594 252.847656 175.808594 253.144531 175.46875 253.738281 C 176.148438 253.738281 178.183594 252.847656 178.183594 253.738281 C 177.84375 253.738281 177.84375 254.035156 178.183594 254.035156 C 177.503906 254.628906 176.488281 254.628906 175.808594 254.929688 C 174.453125 254.929688 172.757812 254.929688 171.402344 254.929688 C 171.0625 254.632812 170.726562 254.632812 170.046875 254.332031 C 169.707031 254.628906 169.03125 254.628906 168.691406 254.929688 C 166.65625 254.929688 164.285156 255.226562 162.589844 255.523438 C 162.589844 254.929688 162.589844 254.332031 161.910156 254.332031 C 160.894531 255.523438 158.859375 254.035156 156.488281 254.632812 C 154.113281 254.035156 157.84375 255.523438 161.234375 256.117188 C 160.894531 256.414062 160.554688 256.710938 159.539062 257.011719 M 112.078125 261.175781 C 107.332031 257.308594 97.5 255.523438 95.804688 252.546875 C 93.09375 252.25 89.027344 247.789062 85.636719 247.195312 C 87.332031 247.195312 85.976562 246.304688 85.636719 245.707031 C 84.957031 246.304688 84.28125 246.601562 83.601562 246.601562 C 83.601562 244.21875 80.890625 242.734375 78.519531 241.246094 C 80.210938 242.136719 81.570312 242.734375 83.601562 243.03125 C 83.601562 242.4375 83.601562 241.839844 84.28125 241.839844 C 86.652344 243.921875 89.367188 246.003906 92.417969 248.085938 C 96.484375 251.359375 117.503906 259.6875 121.230469 261.175781 C 121.230469 261.175781 120.554688 262.363281 120.890625 262.363281 C 122.585938 263.253906 123.945312 261.472656 124.28125 263.554688 C 118.859375 264.148438 116.824219 260.875 112.078125 261.175781 M 268.355469 192.171875 L 268.355469 192.46875 C 268.015625 192.46875 268.355469 192.171875 268.355469 192.171875 M 131.402344 54.460938 C 131.0625 54.757812 130.722656 54.757812 130.722656 54.757812 C 130.722656 54.460938 131.0625 54.460938 131.402344 54.460938 M 124.960938 55.945312 C 124.960938 56.246094 124.960938 56.246094 124.960938 55.945312 C 124.960938 56.246094 124.960938 56.246094 124.960938 55.945312 C 124.960938 56.246094 124.960938 55.945312 124.960938 55.945312 M 102.585938 62.191406 C 102.925781 61.894531 102.925781 61.894531 103.265625 61.894531 C 102.925781 61.894531 102.585938 62.191406 102.585938 62.191406 M 156.828125 52.378906 C 156.148438 52.378906 155.808594 52.378906 155.46875 52.082031 C 155.808594 52.082031 156.148438 52.082031 156.488281 52.082031 L 156.828125 52.082031 C 156.828125 52.082031 156.828125 52.082031 156.828125 52.378906 M 162.929688 52.972656 C 162.589844 52.675781 161.570312 52.378906 160.554688 52.378906 C 160.554688 52.082031 160.894531 51.78125 160.894531 51.78125 C 161.234375 51.78125 161.570312 51.78125 161.910156 51.78125 C 161.910156 51.78125 162.25 51.78125 162.25 52.082031 C 162.25 52.082031 162.25 52.082031 162.25 51.78125 C 162.589844 51.78125 162.589844 51.78125 162.929688 51.78125 C 163.265625 52.378906 163.605469 52.675781 162.929688 52.972656 M 174.113281 53.867188 C 172.421875 54.164062 171.402344 53.566406 169.707031 52.675781 C 170.722656 52.675781 172.082031 52.972656 173.097656 53.269531 C 173.4375 53.269531 173.777344 53.566406 174.113281 53.867188 M 294.796875 96.101562 C 294.121094 96.398438 293.78125 96.398438 293.101562 95.207031 C 287.679688 85.097656 277.847656 70.523438 263.609375 58.328125 C 249.710938 45.835938 231.066406 35.722656 214.117188 30.367188 C 215.132812 30.664062 216.488281 31.261719 215.8125 31.855469 C 200.894531 26.800781 186.65625 23.824219 173.097656 22.636719 C 136.484375 17.578125 98.179688 24.417969 68.6875 41.074219 C 69.027344 41.671875 69.027344 41.96875 68.007812 42.5625 C 57.160156 48.511719 41.90625 58.921875 29.703125 72.605469 C 17.5 86.285156 8.007812 103.535156 3.9375 119.003906 C 4.277344 118.109375 4.617188 116.621094 5.292969 117.21875 C -3.519531 147.851562 -1.144531 174.027344 11.058594 196.632812 C 11.734375 196.035156 9.363281 193.0625 11.394531 193.359375 C 12.753906 196.632812 14.449219 200.199219 16.480469 203.472656 C 18.855469 208.230469 21.566406 214.476562 25.296875 215.964844 C 15.804688 199.605469 9.363281 180.867188 8.683594 164.210938 C 10.039062 166.59375 9.699219 171.648438 11.734375 173.730469 C 12.414062 162.429688 9.363281 147.257812 13.769531 136.550781 C 12.753906 142.203125 12.074219 149.933594 12.753906 157.667969 C 12.753906 163.320312 15.804688 179.082031 17.835938 180.570312 C 17.5 180.273438 17.5 178.785156 17.835938 178.785156 C 18.855469 180.570312 16.480469 181.464844 18.175781 181.761719 C 18.175781 181.164062 18.515625 181.164062 18.855469 181.164062 C 22.242188 187.707031 26.652344 197.820312 30.039062 202.878906 C 34.109375 209.421875 39.53125 215.371094 45.632812 220.722656 C 45.632812 221.019531 45.972656 221.019531 45.972656 221.316406 C 46.652344 222.804688 49.027344 224.589844 49.703125 225.78125 C 50.042969 226.375 49.363281 227.265625 49.703125 227.863281 C 54.789062 236.191406 62.246094 244.519531 71.398438 251.0625 C 77.160156 257.011719 86.3125 263.257812 97.5 268.609375 C 108.347656 273.667969 120.890625 277.832031 132.417969 280.210938 C 140.554688 281.992188 150.382812 282.292969 156.488281 283.480469 C 164.625 284.96875 178.859375 282.886719 185.980469 281.695312 C 228.691406 276.046875 271.066406 250.464844 292.425781 213.585938 C 314.460938 176.40625 313.78125 130.898438 294.796875 96.101562 "/>
<path style=" stroke:none;fill-rule:nonzero;fill:rgb(93.333333%,24.313725%,21.960784%);fill-opacity:1;" d="M 109.328125 190.230469 C 106.839844 190.230469 105.058594 189.742188 103.984375 188.761719 C 102.90625 187.796875 102.371094 185.957031 102.371094 183.242188 C 102.371094 181.414062 102.585938 179.066406 103.015625 176.199219 C 103.457031 173.347656 104.183594 169.414062 105.191406 164.398438 C 106.941406 155.140625 108.320312 147.117188 109.328125 140.335938 C 109.933594 136.089844 110.234375 132.550781 110.234375 129.71875 C 110.234375 127.066406 109.125 125.738281 106.90625 125.738281 C 105.160156 125.738281 103.0625 126.515625 100.617188 128.074219 C 98.15625 129.644531 95.445312 132.136719 92.488281 135.558594 C 91.546875 136.679688 90.503906 137.238281 89.363281 137.238281 C 88.421875 137.238281 87.601562 136.839844 86.902344 136.035156 C 86.191406 135.246094 85.832031 134.347656 85.832031 133.347656 C 85.832031 132.402344 86.054688 131.449219 86.5 130.480469 C 86.929688 129.5 87.648438 128.390625 88.65625 127.152344 C 91.882812 123.203125 95.480469 120.148438 99.445312 117.988281 C 103.410156 115.839844 107.378906 114.769531 111.34375 114.769531 C 115.042969 114.769531 117.878906 115.800781 119.855469 117.863281 C 121.84375 119.929688 122.839844 122.9375 122.839844 126.886719 C 122.839844 128.480469 122.671875 130.351562 122.335938 132.496094 C 122 134.65625 121.695312 136.414062 121.425781 137.769531 C 121.160156 139.125 120.957031 140.070312 120.820312 140.601562 C 124.652344 130.988281 128.957031 124.277344 133.730469 120.464844 C 138.5 116.667969 143.746094 114.769531 149.457031 114.769531 C 153.828125 114.769531 157.277344 116.125 159.804688 118.835938 C 162.316406 121.550781 163.574219 125.382812 163.574219 130.339844 C 163.574219 132.285156 163.273438 134.703125 162.667969 137.59375 C 166.027344 129.453125 169.960938 123.613281 174.464844 120.078125 C 178.96875 116.539062 184.144531 114.769531 189.992188 114.769531 C 194.699219 114.769531 198.316406 116.09375 200.84375 118.75 C 203.355469 121.402344 204.613281 125.117188 204.613281 129.894531 C 204.613281 132.492188 204.175781 135.648438 203.300781 139.363281 L 197.152344 164.664062 C 196.480469 167.613281 196.144531 170.148438 196.144531 172.273438 C 196.144531 174.75 196.800781 176.609375 198.121094 177.847656 C 199.425781 179.085938 201.253906 179.703125 203.605469 179.703125 C 205.824219 179.703125 207.996094 179.054688 210.117188 177.757812 C 212.230469 176.460938 214.730469 174.308594 217.621094 171.300781 C 218.425781 170.472656 219.335938 170.0625 220.34375 170.0625 C 221.21875 170.0625 221.902344 170.414062 222.398438 171.121094 C 222.910156 171.832031 223.167969 172.804688 223.167969 174.042969 C 223.167969 176.34375 222.527344 178.171875 221.25 179.527344 C 217.753906 183.242188 214.292969 185.957031 210.863281 187.667969 C 207.4375 189.375 203.839844 190.230469 200.074219 190.230469 C 194.363281 190.230469 189.890625 188.746094 186.664062 185.773438 C 183.4375 182.789062 181.824219 178.789062 181.824219 173.777344 C 181.824219 170.296875 182.632812 165.253906 184.246094 158.648438 L 188.277344 142.457031 C 188.414062 141.929688 188.648438 140.984375 188.984375 139.628906 C 189.320312 138.269531 189.589844 136.984375 189.792969 135.769531 C 189.992188 134.566406 190.09375 133.375 190.09375 132.195312 C 190.09375 130.132812 189.644531 128.582031 188.742188 127.542969 C 187.828125 126.515625 186.53125 126.003906 184.851562 126.003906 C 181.691406 126.003906 178.382812 127.789062 174.929688 131.363281 C 171.460938 134.925781 168.167969 140.835938 165.046875 149.09375 C 161.914062 157.351562 159.375 168.085938 157.425781 181.296875 C 156.953125 184.835938 156.132812 187.207031 154.964844 188.410156 C 153.78125 189.625 151.878906 190.230469 149.257812 190.230469 C 146.972656 190.230469 145.3125 189.761719 144.277344 188.816406 C 143.226562 187.871094 142.703125 186.101562 142.703125 183.507812 C 142.703125 181.089844 143.074219 177.917969 143.8125 173.988281 C 144.550781 170.074219 145.492188 165.460938 146.636719 160.152344 C 149.726562 145.878906 151.273438 136.679688 151.273438 132.550781 C 151.273438 130.308594 150.789062 128.65625 149.820312 127.597656 C 148.839844 126.535156 147.375 126.003906 145.425781 126.003906 C 142.132812 126.003906 138.738281 127.644531 135.242188 130.921875 C 131.746094 134.191406 128.335938 139.992188 125.015625 148.332031 C 121.683594 156.683594 118.90625 167.96875 116.6875 182.179688 C 116.21875 185.1875 115.53125 187.28125 114.632812 188.460938 C 113.71875 189.640625 111.949219 190.230469 109.328125 190.230469 Z M 109.328125 190.230469 "/>
</g>
</svg>
